<svg width="1440" height="320" viewBox="0 0 1440 320" fill="none" xmlns="http://www.w3.org/2000/svg">
<path d="M0 224L80 240C160 256 320 288 480 293.3C640 299 800 277 960 234.7C1120 192 1280 128 1360 96L1440 64V0H1360C1280 0 1120 0 960 0C800 0 640 0 480 0C320 0 160 0 80 0H0V224Z" fill="#0061FF"/>
<path d="M79.782 40.726V43.834H67.056V53.704H77.388V56.812H67.056V70H63.234V40.726H79.782ZM94.4361 70.378C92.2801 70.378 90.3201 69.888 88.5561 68.908C86.8201 67.928 85.4481 66.542 84.4401 64.75C83.4601 62.93 82.9701 60.83 82.9701 58.45C82.9701 56.098 83.4741 54.026 84.4821 52.234C85.5181 50.414 86.9181 49.028 88.6821 48.076C90.4461 47.096 92.4201 46.606 94.6041 46.606C96.7881 46.606 98.7621 47.096 100.526 48.076C102.29 49.028 103.676 50.4 104.684 52.192C105.72 53.984 106.238 56.07 106.238 58.45C106.238 60.83 105.706 62.93 104.642 64.75C103.606 66.542 102.192 67.928 100.4 68.908C98.6081 69.888 96.6201 70.378 94.4361 70.378ZM94.4361 67.018C95.8081 67.018 97.0961 66.696 98.3001 66.052C99.5041 65.408 100.47 64.442 101.198 63.154C101.954 61.866 102.332 60.298 102.332 58.45C102.332 56.602 101.968 55.034 101.24 53.746C100.512 52.458 99.5601 51.506 98.3841 50.89C97.2081 50.246 95.9341 49.924 94.5621 49.924C93.1621 49.924 91.8741 50.246 90.6981 50.89C89.5501 51.506 88.6261 52.458 87.9261 53.746C87.2261 55.034 86.8761 56.602 86.8761 58.45C86.8761 60.326 87.2121 61.908 87.8841 63.196C88.5841 64.484 89.5081 65.45 90.6561 66.094C91.8041 66.71 93.0641 67.018 94.4361 67.018ZM115.085 50.722C115.757 49.406 116.709 48.384 117.941 47.656C119.201 46.928 120.727 46.564 122.519 46.564V50.512H121.511C117.227 50.512 115.085 52.836 115.085 57.484V70H111.263V46.984H115.085V50.722ZM154.609 46.564C156.401 46.564 157.997 46.942 159.397 47.698C160.797 48.426 161.903 49.532 162.715 51.016C163.527 52.5 163.933 54.306 163.933 56.434V70H160.153V56.98C160.153 54.684 159.579 52.934 158.431 51.73C157.311 50.498 155.785 49.882 153.853 49.882C151.865 49.882 150.283 50.526 149.107 51.814C147.931 53.074 147.343 54.908 147.343 57.316V70H143.563V56.98C143.563 54.684 142.989 52.934 141.841 51.73C140.721 50.498 139.195 49.882 137.263 49.882C135.275 49.882 133.693 50.526 132.517 51.814C131.341 53.074 130.753 54.908 130.753 57.316V70H126.931V46.984H130.753V50.302C131.509 49.098 132.517 48.174 133.777 47.53C135.065 46.886 136.479 46.564 138.019 46.564C139.951 46.564 141.659 46.998 143.143 47.866C144.627 48.734 145.733 50.008 146.461 51.688C147.105 50.064 148.169 48.804 149.653 47.908C151.137 47.012 152.789 46.564 154.609 46.564ZM190.615 46.984V70H186.793V66.598C186.065 67.774 185.043 68.698 183.727 69.37C182.439 70.014 181.011 70.336 179.443 70.336C177.651 70.336 176.041 69.972 174.613 69.244C173.185 68.488 172.051 67.368 171.211 65.884C170.399 64.4 169.993 62.594 169.993 60.466V46.984H173.773V59.962C173.773 62.23 174.347 63.98 175.495 65.212C176.643 66.416 178.211 67.018 180.199 67.018C182.243 67.018 183.853 66.388 185.029 65.128C186.205 63.868 186.793 62.034 186.793 59.626V46.984H190.615ZM200.89 38.92V70H197.068V38.92H200.89ZM205.976 58.408C205.976 56.056 206.452 53.998 207.404 52.234C208.356 50.442 209.658 49.056 211.31 48.076C212.99 47.096 214.852 46.606 216.896 46.606C218.912 46.606 220.662 47.04 222.146 47.908C223.63 48.776 224.736 49.868 225.464 51.184V46.984H229.328V70H225.464V65.716C224.708 67.06 223.574 68.18 222.062 69.076C220.578 69.944 218.842 70.378 216.854 70.378C214.81 70.378 212.962 69.874 211.31 68.866C209.658 67.858 208.356 66.444 207.404 64.624C206.452 62.804 205.976 60.732 205.976 58.408ZM225.464 58.45C225.464 56.714 225.114 55.202 224.414 53.914C223.714 52.626 222.762 51.646 221.558 50.974C220.382 50.274 219.08 49.924 217.652 49.924C216.224 49.924 214.922 50.26 213.746 50.932C212.57 51.604 211.632 52.584 210.932 53.872C210.232 55.16 209.882 56.672 209.882 58.408C209.882 60.172 210.232 61.712 210.932 63.028C211.632 64.316 212.57 65.31 213.746 66.01C214.922 66.682 216.224 67.018 217.652 67.018C219.08 67.018 220.382 66.682 221.558 66.01C222.762 65.31 223.714 64.316 224.414 63.028C225.114 61.712 225.464 60.186 225.464 58.45ZM222.482 40.474L213.536 45.262V42.406L222.482 37.156V40.474ZM239.609 50.722C240.281 49.406 241.233 48.384 242.465 47.656C243.725 46.928 245.251 46.564 247.043 46.564V50.512H246.035C241.751 50.512 239.609 52.836 239.609 57.484V70H235.787V46.984H239.609V50.722ZM253.429 43.246C252.701 43.246 252.085 42.994 251.581 42.49C251.077 41.986 250.825 41.37 250.825 40.642C250.825 39.914 251.077 39.298 251.581 38.794C252.085 38.29 252.701 38.038 253.429 38.038C254.129 38.038 254.717 38.29 255.193 38.794C255.697 39.298 255.949 39.914 255.949 40.642C255.949 41.37 255.697 41.986 255.193 42.49C254.717 42.994 254.129 43.246 253.429 43.246ZM255.277 46.984V70H251.455V46.984H255.277ZM271.829 70.378C269.673 70.378 267.713 69.888 265.949 68.908C264.213 67.928 262.841 66.542 261.833 64.75C260.853 62.93 260.363 60.83 260.363 58.45C260.363 56.098 260.867 54.026 261.875 52.234C262.911 50.414 264.311 49.028 266.075 48.076C267.839 47.096 269.813 46.606 271.997 46.606C274.181 46.606 276.155 47.096 277.919 48.076C279.683 49.028 281.069 50.4 282.077 52.192C283.113 53.984 283.631 56.07 283.631 58.45C283.631 60.83 283.099 62.93 282.035 64.75C280.999 66.542 279.585 67.928 277.793 68.908C276.001 69.888 274.013 70.378 271.829 70.378ZM271.829 67.018C273.201 67.018 274.489 66.696 275.693 66.052C276.897 65.408 277.863 64.442 278.591 63.154C279.347 61.866 279.725 60.298 279.725 58.45C279.725 56.602 279.361 55.034 278.633 53.746C277.905 52.458 276.953 51.506 275.777 50.89C274.601 50.246 273.327 49.924 271.955 49.924C270.555 49.924 269.267 50.246 268.091 50.89C266.943 51.506 266.019 52.458 265.319 53.746C264.619 55.034 264.269 56.602 264.269 58.45C264.269 60.326 264.605 61.908 265.277 63.196C265.977 64.484 266.901 65.45 268.049 66.094C269.197 66.71 270.457 67.018 271.829 67.018ZM67.056 114.226C67.812 112.91 68.932 111.818 70.416 110.95C71.928 110.054 73.678 109.606 75.666 109.606C77.71 109.606 79.558 110.096 81.21 111.076C82.89 112.056 84.206 113.442 85.158 115.234C86.11 116.998 86.586 119.056 86.586 121.408C86.586 123.732 86.11 125.804 85.158 127.624C84.206 129.444 82.89 130.858 81.21 131.866C79.558 132.874 77.71 133.378 75.666 133.378C73.706 133.378 71.97 132.944 70.458 132.076C68.974 131.18 67.84 130.074 67.056 128.758V143.92H63.234V109.984H67.056V114.226ZM82.68 121.408C82.68 119.672 82.33 118.16 81.63 116.872C80.93 115.584 79.978 114.604 78.774 113.932C77.598 113.26 76.296 112.924 74.868 112.924C73.468 112.924 72.166 113.274 70.962 113.974C69.786 114.646 68.834 115.64 68.106 116.956C67.406 118.244 67.056 119.742 67.056 121.45C67.056 123.186 67.406 124.712 68.106 126.028C68.834 127.316 69.786 128.31 70.962 129.01C72.166 129.682 73.468 130.018 74.868 130.018C76.296 130.018 77.598 129.682 78.774 129.01C79.978 128.31 80.93 127.316 81.63 126.028C82.33 124.712 82.68 123.172 82.68 121.408ZM90.1888 121.408C90.1888 119.056 90.6648 116.998 91.6168 115.234C92.5688 113.442 93.8708 112.056 95.5228 111.076C97.2028 110.096 99.0648 109.606 101.109 109.606C103.125 109.606 104.875 110.04 106.359 110.908C107.843 111.776 108.949 112.868 109.677 114.184V109.984H113.541V133H109.677V128.716C108.921 130.06 107.787 131.18 106.275 132.076C104.791 132.944 103.055 133.378 101.067 133.378C99.0228 133.378 97.1748 132.874 95.5228 131.866C93.8708 130.858 92.5688 129.444 91.6168 127.624C90.6648 125.804 90.1888 123.732 90.1888 121.408ZM109.677 121.45C109.677 119.714 109.327 118.202 108.627 116.914C107.927 115.626 106.975 114.646 105.771 113.974C104.595 113.274 103.293 112.924 101.865 112.924C100.437 112.924 99.1348 113.26 97.9588 113.932C96.7828 114.604 95.8448 115.584 95.1448 116.872C94.4448 118.16 94.0948 119.672 94.0948 121.408C94.0948 123.172 94.4448 124.712 95.1448 126.028C95.8448 127.316 96.7828 128.31 97.9588 129.01C99.1348 129.682 100.437 130.018 101.865 130.018C103.293 130.018 104.595 129.682 105.771 129.01C106.975 128.31 107.927 127.316 108.627 126.028C109.327 124.712 109.677 123.186 109.677 121.45ZM123.822 113.722C124.494 112.406 125.446 111.384 126.678 110.656C127.938 109.928 129.464 109.564 131.256 109.564V113.512H130.248C125.964 113.512 123.822 115.836 123.822 120.484V133H120V109.984H123.822V113.722ZM134.24 121.408C134.24 119.056 134.716 116.998 135.668 115.234C136.62 113.442 137.922 112.056 139.574 111.076C141.254 110.096 143.116 109.606 145.16 109.606C147.176 109.606 148.926 110.04 150.41 110.908C151.894 111.776 153 112.868 153.728 114.184V109.984H157.592V133H153.728V128.716C152.972 130.06 151.838 131.18 150.326 132.076C148.842 132.944 147.106 133.378 145.118 133.378C143.074 133.378 141.226 132.874 139.574 131.866C137.922 130.858 136.62 129.444 135.668 127.624C134.716 125.804 134.24 123.732 134.24 121.408ZM153.728 121.45C153.728 119.714 153.378 118.202 152.678 116.914C151.978 115.626 151.026 114.646 149.822 113.974C148.646 113.274 147.344 112.924 145.916 112.924C144.488 112.924 143.186 113.26 142.01 113.932C140.834 114.604 139.896 115.584 139.196 116.872C138.496 118.16 138.146 119.672 138.146 121.408C138.146 123.172 138.496 124.712 139.196 126.028C139.896 127.316 140.834 128.31 142.01 129.01C143.186 129.682 144.488 130.018 145.916 130.018C147.344 130.018 148.646 129.682 149.822 129.01C151.026 128.31 151.978 127.316 152.678 126.028C153.378 124.712 153.728 123.186 153.728 121.45ZM173.82 121.45C173.82 119.07 174.296 116.998 175.248 115.234C176.2 113.442 177.516 112.056 179.196 111.076C180.904 110.096 182.85 109.606 185.034 109.606C187.862 109.606 190.186 110.292 192.006 111.664C193.854 113.036 195.072 114.94 195.66 117.376H191.544C191.152 115.976 190.382 114.87 189.234 114.058C188.114 113.246 186.714 112.84 185.034 112.84C182.85 112.84 181.086 113.596 179.742 115.108C178.398 116.592 177.726 118.706 177.726 121.45C177.726 124.222 178.398 126.364 179.742 127.876C181.086 129.388 182.85 130.144 185.034 130.144C186.714 130.144 188.114 129.752 189.234 128.968C190.354 128.184 191.124 127.064 191.544 125.608H195.66C195.044 127.96 193.812 129.85 191.964 131.278C190.116 132.678 187.806 133.378 185.034 133.378C182.85 133.378 180.904 132.888 179.196 131.908C177.516 130.928 176.2 129.542 175.248 127.75C174.296 125.958 173.82 123.858 173.82 121.45ZM210.797 133.378C208.641 133.378 206.681 132.888 204.917 131.908C203.181 130.928 201.809 129.542 200.801 127.75C199.821 125.93 199.331 123.83 199.331 121.45C199.331 119.098 199.835 117.026 200.843 115.234C201.879 113.414 203.279 112.028 205.043 111.076C206.807 110.096 208.781 109.606 210.965 109.606C213.149 109.606 215.123 110.096 216.887 111.076C218.651 112.028 220.037 113.4 221.045 115.192C222.081 116.984 222.599 119.07 222.599 121.45C222.599 123.83 222.067 125.93 221.003 127.75C219.967 129.542 218.553 130.928 216.761 131.908C214.969 132.888 212.981 133.378 210.797 133.378ZM210.797 130.018C212.169 130.018 213.457 129.696 214.661 129.052C215.865 128.408 216.831 127.442 217.559 126.154C218.315 124.866 218.693 123.298 218.693 121.45C218.693 119.602 218.329 118.034 217.601 116.746C216.873 115.458 215.921 114.506 214.745 113.89C213.569 113.246 212.295 112.924 210.923 112.924C209.523 112.924 208.235 113.246 207.059 113.89C205.911 114.506 204.987 115.458 204.287 116.746C203.587 118.034 203.237 119.602 203.237 121.45C203.237 123.326 203.573 124.908 204.245 126.196C204.945 127.484 205.869 128.45 207.017 129.094C208.165 129.71 209.425 130.018 210.797 130.018ZM255.303 109.564C257.095 109.564 258.691 109.942 260.091 110.698C261.491 111.426 262.597 112.532 263.409 114.016C264.221 115.5 264.627 117.306 264.627 119.434V133H260.847V119.98C260.847 117.684 260.273 115.934 259.125 114.73C258.005 113.498 256.479 112.882 254.547 112.882C252.559 112.882 250.977 113.526 249.801 114.814C248.625 116.074 248.037 117.908 248.037 120.316V133H244.257V119.98C244.257 117.684 243.683 115.934 242.535 114.73C241.415 113.498 239.889 112.882 237.957 112.882C235.969 112.882 234.387 113.526 233.211 114.814C232.035 116.074 231.447 117.908 231.447 120.316V133H227.625V109.984H231.447V113.302C232.203 112.098 233.211 111.174 234.471 110.53C235.759 109.886 237.173 109.564 238.713 109.564C240.645 109.564 242.353 109.998 243.837 110.866C245.321 111.734 246.427 113.008 247.155 114.688C247.799 113.064 248.863 111.804 250.347 110.908C251.831 110.012 253.483 109.564 255.303 109.564ZM274.718 114.226C275.474 112.91 276.594 111.818 278.078 110.95C279.59 110.054 281.34 109.606 283.328 109.606C285.372 109.606 287.22 110.096 288.872 111.076C290.552 112.056 291.868 113.442 292.82 115.234C293.772 116.998 294.248 119.056 294.248 121.408C294.248 123.732 293.772 125.804 292.82 127.624C291.868 129.444 290.552 130.858 288.872 131.866C287.22 132.874 285.372 133.378 283.328 133.378C281.368 133.378 279.632 132.944 278.12 132.076C276.636 131.18 275.502 130.074 274.718 128.758V143.92H270.896V109.984H274.718V114.226ZM290.342 121.408C290.342 119.672 289.992 118.16 289.292 116.872C288.592 115.584 287.64 114.604 286.436 113.932C285.26 113.26 283.958 112.924 282.53 112.924C281.13 112.924 279.828 113.274 278.624 113.974C277.448 114.646 276.496 115.64 275.768 116.956C275.068 118.244 274.718 119.742 274.718 121.45C274.718 123.186 275.068 124.712 275.768 126.028C276.496 127.316 277.448 128.31 278.624 129.01C279.828 129.682 281.13 130.018 282.53 130.018C283.958 130.018 285.26 129.682 286.436 129.01C287.64 128.31 288.592 127.316 289.292 126.028C289.992 124.712 290.342 123.172 290.342 121.408ZM303.101 113.722C303.773 112.406 304.725 111.384 305.957 110.656C307.217 109.928 308.743 109.564 310.535 109.564V113.512H309.527C305.243 113.512 303.101 115.836 303.101 120.484V133H299.279V109.984H303.101V113.722ZM313.519 121.408C313.519 119.056 313.995 116.998 314.947 115.234C315.899 113.442 317.201 112.056 318.853 111.076C320.533 110.096 322.395 109.606 324.439 109.606C326.455 109.606 328.205 110.04 329.689 110.908C331.173 111.776 332.279 112.868 333.007 114.184V109.984H336.871V133H333.007V128.716C332.251 130.06 331.117 131.18 329.605 132.076C328.121 132.944 326.385 133.378 324.397 133.378C322.353 133.378 320.505 132.874 318.853 131.866C317.201 130.858 315.899 129.444 314.947 127.624C313.995 125.804 313.519 123.732 313.519 121.408ZM333.007 121.45C333.007 119.714 332.657 118.202 331.957 116.914C331.257 115.626 330.305 114.646 329.101 113.974C327.925 113.274 326.623 112.924 325.195 112.924C323.767 112.924 322.465 113.26 321.289 113.932C320.113 114.604 319.175 115.584 318.475 116.872C317.775 118.16 317.425 119.672 317.425 121.408C317.425 123.172 317.775 124.712 318.475 126.028C319.175 127.316 320.113 128.31 321.289 129.01C322.465 129.682 323.767 130.018 325.195 130.018C326.623 130.018 327.925 129.682 329.101 129.01C330.305 128.31 331.257 127.316 331.957 126.028C332.657 124.712 333.007 123.186 333.007 121.45ZM353.099 121.408C353.099 119.056 353.575 116.998 354.527 115.234C355.479 113.442 356.781 112.056 358.433 111.076C360.113 110.096 361.989 109.606 364.061 109.606C365.853 109.606 367.519 110.026 369.059 110.866C370.599 111.678 371.775 112.756 372.587 114.1V101.92H376.451V133H372.587V128.674C371.831 130.046 370.711 131.18 369.227 132.076C367.743 132.944 366.007 133.378 364.019 133.378C361.975 133.378 360.113 132.874 358.433 131.866C356.781 130.858 355.479 129.444 354.527 127.624C353.575 125.804 353.099 123.732 353.099 121.408ZM372.587 121.45C372.587 119.714 372.237 118.202 371.537 116.914C370.837 115.626 369.885 114.646 368.681 113.974C367.505 113.274 366.203 112.924 364.775 112.924C363.347 112.924 362.045 113.26 360.869 113.932C359.693 114.604 358.755 115.584 358.055 116.872C357.355 118.16 357.005 119.672 357.005 121.408C357.005 123.172 357.355 124.712 358.055 126.028C358.755 127.316 359.693 128.31 360.869 129.01C362.045 129.682 363.347 130.018 364.775 130.018C366.203 130.018 367.505 129.682 368.681 129.01C369.885 128.31 370.837 127.316 371.537 126.028C372.237 124.712 372.587 123.186 372.587 121.45ZM403.91 120.61C403.91 121.338 403.868 122.108 403.784 122.92H385.388C385.528 125.188 386.298 126.966 387.698 128.254C389.126 129.514 390.848 130.144 392.864 130.144C394.516 130.144 395.888 129.766 396.98 129.01C398.1 128.226 398.884 127.19 399.332 125.902H403.448C402.832 128.114 401.6 129.92 399.752 131.32C397.904 132.692 395.608 133.378 392.864 133.378C390.68 133.378 388.72 132.888 386.984 131.908C385.276 130.928 383.932 129.542 382.952 127.75C381.972 125.93 381.482 123.83 381.482 121.45C381.482 119.07 381.958 116.984 382.91 115.192C383.862 113.4 385.192 112.028 386.9 111.076C388.636 110.096 390.624 109.606 392.864 109.606C395.048 109.606 396.98 110.082 398.66 111.034C400.34 111.986 401.628 113.302 402.524 114.982C403.448 116.634 403.91 118.51 403.91 120.61ZM399.962 119.812C399.962 118.356 399.64 117.11 398.996 116.074C398.352 115.01 397.47 114.212 396.35 113.68C395.258 113.12 394.04 112.84 392.696 112.84C390.764 112.84 389.112 113.456 387.74 114.688C386.396 115.92 385.626 117.628 385.43 119.812H399.962ZM85.074 176.008C85.074 177.716 84.682 179.284 83.898 180.712C83.114 182.112 81.91 183.246 80.286 184.114C78.662 184.982 76.646 185.416 74.238 185.416H69.786V196H62.604V166.516H74.238C76.59 166.516 78.578 166.922 80.202 167.734C81.826 168.546 83.044 169.666 83.856 171.094C84.668 172.522 85.074 174.16 85.074 176.008ZM73.692 179.704C75.064 179.704 76.086 179.382 76.758 178.738C77.43 178.094 77.766 177.184 77.766 176.008C77.766 174.832 77.43 173.922 76.758 173.278C76.086 172.634 75.064 172.312 73.692 172.312H69.786V179.704H73.692ZM87.385 184.24C87.385 181.832 87.833 179.718 88.729 177.898C89.653 176.078 90.899 174.678 92.467 173.698C94.035 172.718 95.785 172.228 97.717 172.228C99.369 172.228 100.811 172.564 102.043 173.236C103.303 173.908 104.269 174.79 104.941 175.882V172.564H112.123V196H104.941V192.682C104.241 193.774 103.261 194.656 102.001 195.328C100.769 196 99.327 196.336 97.675 196.336C95.771 196.336 94.035 195.846 92.467 194.866C90.899 193.858 89.653 192.444 88.729 190.624C87.833 188.776 87.385 186.648 87.385 184.24ZM104.941 184.282C104.941 182.49 104.437 181.076 103.429 180.04C102.449 179.004 101.245 178.486 99.817 178.486C98.389 178.486 97.171 179.004 96.163 180.04C95.183 181.048 94.693 182.448 94.693 184.24C94.693 186.032 95.183 187.46 96.163 188.524C97.171 189.56 98.389 190.078 99.817 190.078C101.245 190.078 102.449 189.56 103.429 188.524C104.437 187.488 104.941 186.074 104.941 184.282ZM115.891 184.282C115.891 181.846 116.381 179.718 117.361 177.898C118.369 176.078 119.755 174.678 121.519 173.698C123.311 172.718 125.355 172.228 127.651 172.228C130.591 172.228 133.041 172.998 135.001 174.538C136.989 176.078 138.291 178.248 138.907 181.048H131.263C130.619 179.256 129.373 178.36 127.525 178.36C126.209 178.36 125.159 178.878 124.375 179.914C123.591 180.922 123.199 182.378 123.199 184.282C123.199 186.186 123.591 187.656 124.375 188.692C125.159 189.7 126.209 190.204 127.525 190.204C129.373 190.204 130.619 189.308 131.263 187.516H138.907C138.291 190.26 136.989 192.416 135.001 193.984C133.013 195.552 130.563 196.336 127.651 196.336C125.355 196.336 123.311 195.846 121.519 194.866C119.755 193.886 118.369 192.486 117.361 190.666C116.381 188.846 115.891 186.718 115.891 184.282ZM153.417 196.336C151.121 196.336 149.049 195.846 147.201 194.866C145.381 193.886 143.939 192.486 142.875 190.666C141.839 188.846 141.321 186.718 141.321 184.282C141.321 181.874 141.853 179.76 142.917 177.94C143.981 176.092 145.437 174.678 147.285 173.698C149.133 172.718 151.205 172.228 153.501 172.228C155.797 172.228 157.869 172.718 159.717 173.698C161.565 174.678 163.021 176.092 164.085 177.94C165.149 179.76 165.681 181.874 165.681 184.282C165.681 186.69 165.135 188.818 164.043 190.666C162.979 192.486 161.509 193.886 159.633 194.866C157.785 195.846 155.713 196.336 153.417 196.336ZM153.417 190.12C154.789 190.12 155.951 189.616 156.903 188.608C157.883 187.6 158.373 186.158 158.373 184.282C158.373 182.406 157.897 180.964 156.945 179.956C156.021 178.948 154.873 178.444 153.501 178.444C152.101 178.444 150.939 178.948 150.015 179.956C149.091 180.936 148.629 182.378 148.629 184.282C148.629 186.158 149.077 187.6 149.973 188.608C150.897 189.616 152.045 190.12 153.417 190.12ZM182.553 189.91V196H178.899C176.295 196 174.265 195.37 172.809 194.11C171.353 192.822 170.625 190.736 170.625 187.852V178.528H167.769V172.564H170.625V166.852H177.807V172.564H182.511V178.528H177.807V187.936C177.807 188.636 177.975 189.14 178.311 189.448C178.647 189.756 179.207 189.91 179.991 189.91H182.553ZM208.645 183.904C208.645 184.576 208.603 185.276 208.519 186.004H192.265C192.377 187.46 192.839 188.58 193.651 189.364C194.491 190.12 195.513 190.498 196.717 190.498C198.509 190.498 199.755 189.742 200.455 188.23H208.099C207.707 189.77 206.993 191.156 205.957 192.388C204.949 193.62 203.675 194.586 202.135 195.286C200.595 195.986 198.873 196.336 196.969 196.336C194.673 196.336 192.629 195.846 190.837 194.866C189.045 193.886 187.645 192.486 186.637 190.666C185.629 188.846 185.125 186.718 185.125 184.282C185.125 181.846 185.615 179.718 186.595 177.898C187.603 176.078 189.003 174.678 190.795 173.698C192.587 172.718 194.645 172.228 196.969 172.228C199.237 172.228 201.253 172.704 203.017 173.656C204.781 174.608 206.153 175.966 207.133 177.73C208.141 179.494 208.645 181.552 208.645 183.904ZM201.295 182.014C201.295 180.782 200.875 179.802 200.035 179.074C199.195 178.346 198.145 177.982 196.885 177.982C195.681 177.982 194.659 178.332 193.819 179.032C193.007 179.732 192.503 180.726 192.307 182.014H201.295ZM219.906 184.24C219.906 181.832 220.354 179.718 221.25 177.898C222.174 176.078 223.42 174.678 224.988 173.698C226.556 172.718 228.306 172.228 230.238 172.228C231.778 172.228 233.178 172.55 234.438 173.194C235.726 173.838 236.734 174.706 237.462 175.798V164.92H244.644V196H237.462V192.64C236.79 193.76 235.824 194.656 234.564 195.328C233.332 196 231.89 196.336 230.238 196.336C228.306 196.336 226.556 195.846 224.988 194.866C223.42 193.858 222.174 192.444 221.25 190.624C220.354 188.776 219.906 186.648 219.906 184.24ZM237.462 184.282C237.462 182.49 236.958 181.076 235.95 180.04C234.97 179.004 233.766 178.486 232.338 178.486C230.91 178.486 229.692 179.004 228.684 180.04C227.704 181.048 227.214 182.448 227.214 184.24C227.214 186.032 227.704 187.46 228.684 188.524C229.692 189.56 230.91 190.078 232.338 190.078C233.766 190.078 234.97 189.56 235.95 188.524C236.958 187.488 237.462 186.074 237.462 184.282ZM271.932 183.904C271.932 184.576 271.89 185.276 271.806 186.004H255.552C255.664 187.46 256.126 188.58 256.938 189.364C257.778 190.12 258.8 190.498 260.004 190.498C261.796 190.498 263.042 189.742 263.742 188.23H271.386C270.994 189.77 270.28 191.156 269.244 192.388C268.236 193.62 266.962 194.586 265.422 195.286C263.882 195.986 262.16 196.336 260.256 196.336C257.96 196.336 255.916 195.846 254.124 194.866C252.332 193.886 250.932 192.486 249.924 190.666C248.916 188.846 248.412 186.718 248.412 184.282C248.412 181.846 248.902 179.718 249.882 177.898C250.89 176.078 252.29 174.678 254.082 173.698C255.874 172.718 257.932 172.228 260.256 172.228C262.524 172.228 264.54 172.704 266.304 173.656C268.068 174.608 269.44 175.966 270.42 177.73C271.428 179.494 271.932 181.552 271.932 183.904ZM264.582 182.014C264.582 180.782 264.162 179.802 263.322 179.074C262.482 178.346 261.432 177.982 260.172 177.982C258.968 177.982 257.946 178.332 257.106 179.032C256.294 179.732 255.79 180.726 255.594 182.014H264.582ZM283.194 184.24C283.194 181.832 283.642 179.718 284.538 177.898C285.462 176.078 286.708 174.678 288.276 173.698C289.844 172.718 291.594 172.228 293.526 172.228C295.178 172.228 296.62 172.564 297.852 173.236C299.112 173.908 300.078 174.79 300.75 175.882V172.564H307.932V196H300.75V192.682C300.05 193.774 299.07 194.656 297.81 195.328C296.578 196 295.136 196.336 293.484 196.336C291.58 196.336 289.844 195.846 288.276 194.866C286.708 193.858 285.462 192.444 284.538 190.624C283.642 188.776 283.194 186.648 283.194 184.24ZM300.75 184.282C300.75 182.49 300.246 181.076 299.238 180.04C298.258 179.004 297.054 178.486 295.626 178.486C294.198 178.486 292.98 179.004 291.972 180.04C290.992 181.048 290.502 182.448 290.502 184.24C290.502 186.032 290.992 187.46 291.972 188.524C292.98 189.56 294.198 190.078 295.626 190.078C297.054 190.078 298.258 189.56 299.238 188.524C300.246 187.488 300.75 186.074 300.75 184.282ZM311.699 184.24C311.699 181.832 312.147 179.718 313.043 177.898C313.967 176.078 315.213 174.678 316.781 173.698C318.349 172.718 320.099 172.228 322.031 172.228C323.571 172.228 324.971 172.55 326.231 173.194C327.519 173.838 328.527 174.706 329.255 175.798V164.92H336.437V196H329.255V192.64C328.583 193.76 327.617 194.656 326.357 195.328C325.125 196 323.683 196.336 322.031 196.336C320.099 196.336 318.349 195.846 316.781 194.866C315.213 193.858 313.967 192.444 313.043 190.624C312.147 188.776 311.699 186.648 311.699 184.24ZM329.255 184.282C329.255 182.49 328.751 181.076 327.743 180.04C326.763 179.004 325.559 178.486 324.131 178.486C322.703 178.486 321.485 179.004 320.477 180.04C319.497 181.048 319.007 182.448 319.007 184.24C319.007 186.032 319.497 187.46 320.477 188.524C321.485 189.56 322.703 190.078 324.131 190.078C325.559 190.078 326.763 189.56 327.743 188.524C328.751 187.488 329.255 186.074 329.255 184.282ZM363.725 183.904C363.725 184.576 363.683 185.276 363.599 186.004H347.345C347.457 187.46 347.919 188.58 348.731 189.364C349.571 190.12 350.593 190.498 351.797 190.498C353.589 190.498 354.835 189.742 355.535 188.23H363.179C362.787 189.77 362.073 191.156 361.037 192.388C360.029 193.62 358.755 194.586 357.215 195.286C355.675 195.986 353.953 196.336 352.049 196.336C349.753 196.336 347.709 195.846 345.917 194.866C344.125 193.886 342.725 192.486 341.717 190.666C340.709 188.846 340.205 186.718 340.205 184.282C340.205 181.846 340.695 179.718 341.675 177.898C342.683 176.078 344.083 174.678 345.875 173.698C347.667 172.718 349.725 172.228 352.049 172.228C354.317 172.228 356.333 172.704 358.097 173.656C359.861 174.608 361.233 175.966 362.213 177.73C363.221 179.494 363.725 181.552 363.725 183.904ZM356.375 182.014C356.375 180.782 355.955 179.802 355.115 179.074C354.275 178.346 353.225 177.982 351.965 177.982C350.761 177.982 349.739 178.332 348.899 179.032C348.087 179.732 347.583 180.726 347.387 182.014H356.375ZM377.048 196.336C375.004 196.336 373.184 195.986 371.588 195.286C369.992 194.586 368.732 193.634 367.808 192.43C366.884 191.198 366.366 189.826 366.254 188.314H373.352C373.436 189.126 373.814 189.784 374.486 190.288C375.158 190.792 375.984 191.044 376.964 191.044C377.86 191.044 378.546 190.876 379.022 190.54C379.526 190.176 379.778 189.714 379.778 189.154C379.778 188.482 379.428 187.992 378.728 187.684C378.028 187.348 376.894 186.984 375.326 186.592C373.646 186.2 372.246 185.794 371.126 185.374C370.006 184.926 369.04 184.24 368.228 183.316C367.416 182.364 367.01 181.09 367.01 179.494C367.01 178.15 367.374 176.932 368.102 175.84C368.858 174.72 369.95 173.838 371.378 173.194C372.834 172.55 374.556 172.228 376.544 172.228C379.484 172.228 381.794 172.956 383.474 174.412C385.182 175.868 386.162 177.8 386.414 180.208H379.778C379.666 179.396 379.302 178.752 378.686 178.276C378.098 177.8 377.314 177.562 376.334 177.562C375.494 177.562 374.85 177.73 374.402 178.066C373.954 178.374 373.73 178.808 373.73 179.368C373.73 180.04 374.08 180.544 374.78 180.88C375.508 181.216 376.628 181.552 378.14 181.888C379.876 182.336 381.29 182.784 382.382 183.232C383.474 183.652 384.426 184.352 385.238 185.332C386.078 186.284 386.512 187.572 386.54 189.196C386.54 190.568 386.148 191.8 385.364 192.892C384.608 193.956 383.502 194.796 382.046 195.412C380.618 196.028 378.952 196.336 377.048 196.336ZM394.546 170.128C393.286 170.128 392.25 169.764 391.438 169.036C390.654 168.28 390.262 167.356 390.262 166.264C390.262 165.144 390.654 164.22 391.438 163.492C392.25 162.736 393.286 162.358 394.546 162.358C395.778 162.358 396.786 162.736 397.57 163.492C398.382 164.22 398.788 165.144 398.788 166.264C398.788 167.356 398.382 168.28 397.57 169.036C396.786 169.764 395.778 170.128 394.546 170.128ZM398.116 172.564V196H390.934V172.564H398.116ZM413.863 189.28L418.945 172.564H426.589L418.273 196H409.411L401.095 172.564H408.781L413.863 189.28ZM440.28 196.336C437.984 196.336 435.912 195.846 434.064 194.866C432.244 193.886 430.802 192.486 429.738 190.666C428.702 188.846 428.184 186.718 428.184 184.282C428.184 181.874 428.716 179.76 429.78 177.94C430.844 176.092 432.3 174.678 434.148 173.698C435.996 172.718 438.068 172.228 440.364 172.228C442.66 172.228 444.732 172.718 446.58 173.698C448.428 174.678 449.884 176.092 450.948 177.94C452.012 179.76 452.544 181.874 452.544 184.282C452.544 186.69 451.998 188.818 450.906 190.666C449.842 192.486 448.372 193.886 446.496 194.866C444.648 195.846 442.576 196.336 440.28 196.336ZM440.28 190.12C441.652 190.12 442.814 189.616 443.766 188.608C444.746 187.6 445.236 186.158 445.236 184.282C445.236 182.406 444.76 180.964 443.808 179.956C442.884 178.948 441.736 178.444 440.364 178.444C438.964 178.444 437.802 178.948 436.878 179.956C435.954 180.936 435.492 182.378 435.492 184.282C435.492 186.158 435.94 187.6 436.836 188.608C437.76 189.616 438.908 190.12 440.28 190.12ZM465.888 196.336C463.844 196.336 462.024 195.986 460.428 195.286C458.832 194.586 457.572 193.634 456.648 192.43C455.724 191.198 455.206 189.826 455.094 188.314H462.192C462.276 189.126 462.654 189.784 463.326 190.288C463.998 190.792 464.824 191.044 465.804 191.044C466.7 191.044 467.386 190.876 467.862 190.54C468.366 190.176 468.618 189.714 468.618 189.154C468.618 188.482 468.268 187.992 467.568 187.684C466.868 187.348 465.734 186.984 464.166 186.592C462.486 186.2 461.086 185.794 459.966 185.374C458.846 184.926 457.88 184.24 457.068 183.316C456.256 182.364 455.85 181.09 455.85 179.494C455.85 178.15 456.214 176.932 456.942 175.84C457.698 174.72 458.79 173.838 460.218 173.194C461.674 172.55 463.396 172.228 465.384 172.228C468.324 172.228 470.634 172.956 472.314 174.412C474.022 175.868 475.002 177.8 475.254 180.208H468.618C468.506 179.396 468.142 178.752 467.526 178.276C466.938 177.8 466.154 177.562 465.174 177.562C464.334 177.562 463.69 177.73 463.242 178.066C462.794 178.374 462.57 178.808 462.57 179.368C462.57 180.04 462.92 180.544 463.62 180.88C464.348 181.216 465.468 181.552 466.98 181.888C468.716 182.336 470.13 182.784 471.222 183.232C472.314 183.652 473.266 184.352 474.078 185.332C474.918 186.284 475.352 187.572 475.38 189.196C475.38 190.568 474.988 191.8 474.204 192.892C473.448 193.956 472.342 194.796 470.886 195.412C469.458 196.028 467.792 196.336 465.888 196.336Z" fill="#F1F1FF"/>
<path d="M770.625 117.75L669.375 59.3625" stroke="#30A8FF" stroke-width="20" stroke-linecap="round" stroke-linejoin="round"/>
<path d="M821.25 192V102C821.246 98.0543 820.204 94.1791 818.23 90.7631C816.255 87.347 813.417 84.5103 810 82.5375L731.25 37.5375C727.83 35.5627 723.95 34.5231 720 34.5231C716.05 34.5231 712.17 35.5627 708.75 37.5375L630 82.5375C626.583 84.5103 623.745 87.347 621.77 90.7631C619.796 94.1791 618.754 98.0543 618.75 102V192C618.754 195.946 619.796 199.821 621.77 203.237C623.745 206.653 626.583 209.49 630 211.462L708.75 256.462C712.17 258.437 716.05 259.477 720 259.477C723.95 259.477 727.83 258.437 731.25 256.462L810 211.462C813.417 209.49 816.255 206.653 818.23 203.237C820.204 199.821 821.246 195.946 821.25 192Z" stroke="#30A8FF" stroke-width="20" stroke-linecap="round" stroke-linejoin="round"/>
<path d="M621.788 90.3L720 147.113L818.212 90.3" stroke="#30A8FF" stroke-width="20" stroke-linecap="round" stroke-linejoin="round"/>
<path d="M720 260.4V147" stroke="#30A8FF" stroke-width="20" stroke-linecap="round" stroke-linejoin="round"/>
</svg>
